<?xml version="1.0" standalone="no"?>
<!DOCTYPE svg PUBLIC "-//W3C//DTD SVG 20010904//EN"
 "http://www.w3.org/TR/2001/REC-SVG-20010904/DTD/svg10.dtd">
<svg version="1.0" xmlns="http://www.w3.org/2000/svg"
 width="1219.000000pt" height="1280.000000pt" viewBox="0 0 1219.000000 1280.000000"
 preserveAspectRatio="xMidYMid meet">
<metadata>
Created by potrace 1.15, written by Peter Selinger 2001-2017
</metadata>
<g transform="translate(0.000000,1280.000000) scale(0.100000,-0.100000)"
fill="white" stroke="none">
<path d="M7610 12396 c-3825 -541 -3699 -523 -3830 -552 -1356 -306 -2555
-1505 -3237 -3237 -288 -733 -453 -1473 -525 -2357 -17 -208 -17 -918 0 -1125
75 -927 270 -1694 611 -2410 148 -310 372 -669 577 -925 264 -330 616 -645
933 -834 118 -71 1066 -588 1207 -659 266 -134 550 -223 846 -268 173 -26 448
-35 608 -20 69 6 589 77 1155 156 567 80 1049 145 1073 145 85 0 4447 619
4507 640 308 106 565 490 624 933 25 180 9 428 -38 587 -60 208 -176 385 -311
476 -74 50 -1073 591 -1126 609 -112 40 -118 39 -1499 -154 -709 -100 -1300
-184 -1312 -186 l-23 -5 0 904 c0 531 4 907 9 910 5 4 679 100 1498 216 818
115 1506 215 1528 221 101 29 229 113 323 213 188 201 303 480 334 808 37 400
-102 798 -341 972 -59 43 -1047 582 -1126 614 -117 48 -123 48 -1190 -102
-533 -75 -982 -139 -997 -142 l-28 -6 0 911 c0 716 3 911 12 911 27 0 3576
501 3623 511 254 56 500 325 616 671 71 213 96 474 65 688 -41 276 -164 516
-329 639 -67 50 -1074 598 -1147 624 -124 44 1 59 -3090 -377z m-2227 -6073
c-2 -1633 -6 -3076 -9 -3208 l-6 -241 -737 -102 c-674 -94 -749 -103 -886
-102 -131 0 -226 8 -301 25 -12 3 -63 52 -114 109 -477 539 -767 1284 -840
2166 -15 182 -13 646 5 843 84 946 409 1800 939 2461 103 129 333 360 456 457
299 238 611 395 934 469 73 17 440 76 551 89 7 1 9 -993 8 -2966z"/>
</g>
</svg>
