
<svg
   xmlns:dc="http://purl.org/dc/elements/1.1/"
   xmlns:cc="http://creativecommons.org/ns#"
   xmlns:rdf="http://www.w3.org/1999/02/22-rdf-syntax-ns#"
   xmlns:svg="http://www.w3.org/2000/svg"
   xmlns="http://www.w3.org/2000/svg"
   xmlns:sodipodi="http://sodipodi.sourceforge.net/DTD/sodipodi-0.dtd"
   xmlns:inkscape="http://www.inkscape.org/namespaces/inkscape"
   inkscape:export-ydpi="576"
   inkscape:export-xdpi="576"
   inkscape:export-filename="D:\Project Real\Januari 1\Export\filled line\png\03 - Mirror.png"
   width="64pt"
   height="64pt"
   viewBox="0 0 22.577778 22.577778"
   version="1.1"
   id="svg831"
   inkscape:version="1.0 (4035a4fb49, 2020-05-01)"
   sodipodi:docname="04 - Sofa.svg">
  <defs
     id="defs825">
    <pattern
       id="EMFhbasepattern"
       patternUnits="userSpaceOnUse"
       width="6"
       height="6"
       x="0"
       y="0" />
    <pattern
       id="EMFhbasepattern-9"
       patternUnits="userSpaceOnUse"
       width="6"
       height="6"
       x="0"
       y="0" />
    <pattern
       id="EMFhbasepattern-0"
       patternUnits="userSpaceOnUse"
       width="6"
       height="6"
       x="0"
       y="0" />
    <pattern
       id="EMFhbasepattern-7"
       patternUnits="userSpaceOnUse"
       width="6"
       height="6"
       x="0"
       y="0" />
    <pattern
       id="EMFhbasepattern-2"
       patternUnits="userSpaceOnUse"
       width="6"
       height="6"
       x="0"
       y="0" />
    <pattern
       id="EMFhbasepattern-98"
       patternUnits="userSpaceOnUse"
       width="6"
       height="6"
       x="0"
       y="0" />
    <pattern
       id="EMFhbasepattern-6"
       patternUnits="userSpaceOnUse"
       width="6"
       height="6"
       x="0"
       y="0" />
    <pattern
       id="EMFhbasepattern-01"
       patternUnits="userSpaceOnUse"
       width="6"
       height="6"
       x="0"
       y="0" />
    <pattern
       id="EMFhbasepattern-07"
       patternUnits="userSpaceOnUse"
       width="6"
       height="6"
       x="0"
       y="0" />
    <pattern
       id="EMFhbasepattern-8"
       patternUnits="userSpaceOnUse"
       width="6"
       height="6"
       x="0"
       y="0" />
    <pattern
       id="EMFhbasepattern-4"
       patternUnits="userSpaceOnUse"
       width="6"
       height="6"
       x="0"
       y="0" />
    <pattern
       id="EMFhbasepattern-40"
       patternUnits="userSpaceOnUse"
       width="6"
       height="6"
       x="0"
       y="0" />
    <pattern
       id="EMFhbasepattern-08"
       patternUnits="userSpaceOnUse"
       width="6"
       height="6"
       x="0"
       y="0" />
    <pattern
       id="EMFhbasepattern-04"
       patternUnits="userSpaceOnUse"
       width="6"
       height="6"
       x="0"
       y="0" />
    <pattern
       id="EMFhbasepattern-014"
       patternUnits="userSpaceOnUse"
       width="6"
       height="6"
       x="0"
       y="0" />
    <pattern
       id="EMFhbasepattern-27"
       patternUnits="userSpaceOnUse"
       width="6"
       height="6"
       x="0"
       y="0" />
    <pattern
       id="EMFhbasepattern-09"
       patternUnits="userSpaceOnUse"
       width="6"
       height="6"
       x="0"
       y="0" />
    <pattern
       id="EMFhbasepattern-5"
       patternUnits="userSpaceOnUse"
       width="6"
       height="6"
       x="0"
       y="0" />
    <pattern
       id="EMFhbasepattern-018"
       patternUnits="userSpaceOnUse"
       width="6"
       height="6"
       x="0"
       y="0" />
  </defs>
  <sodipodi:namedview
     id="base"
     pagecolor="#ffffff"
     bordercolor="#666666"
     borderopacity="1.0"
     inkscape:pageopacity="0.0"
     inkscape:pageshadow="2"
     inkscape:zoom="6.2578125"
     inkscape:cx="42.666667"
     inkscape:cy="42.666667"
     inkscape:document-units="pt"
     inkscape:current-layer="layer1"
     showgrid="false"
     units="pt"
     inkscape:window-width="1366"
     inkscape:window-height="705"
     inkscape:window-x="-8"
     inkscape:window-y="-8"
     inkscape:window-maximized="1"
     inkscape:pagecheckerboard="true"
     inkscape:showpageshadow="false"
     inkscape:object-paths="true"
     inkscape:snap-intersection-paths="true"
     inkscape:snap-smooth-nodes="true"
     inkscape:snap-midpoints="true"
     showguides="true"
     inkscape:snap-bbox="true"
     inkscape:bbox-nodes="true"
     inkscape:snap-nodes="false"
     inkscape:snap-global="true"
     inkscape:document-rotation="0">
    <inkscape:grid
       type="xygrid"
       id="grid1378" />
    <sodipodi:guide
       position="0.97013831,21.607643"
       orientation="78.000048,0"
       id="guide1380"
       inkscape:locked="false" />
    <sodipodi:guide
       position="0.97013831,0.97013129"
       orientation="0,78.000005"
       id="guide1382"
       inkscape:locked="false" />
    <sodipodi:guide
       position="21.607639,0.97013129"
       orientation="-78.000048,0"
       id="guide1384"
       inkscape:locked="false" />
    <sodipodi:guide
       position="21.607639,21.607643"
       orientation="0,-78.000005"
       id="guide1386"
       inkscape:locked="false" />
  </sodipodi:namedview>
  <metadata
     id="metadata828">
    <rdf:RDF>
      <cc:Work
         rdf:about="">
        <dc:format>image/svg+xml</dc:format>
        <dc:type
           rdf:resource="http://purl.org/dc/dcmitype/StillImage" />
        <dc:title></dc:title>
      </cc:Work>
    </rdf:RDF>
  </metadata>
  <g
     inkscape:label="Icon"
     inkscape:groupmode="layer"
     id="layer1"
     transform="translate(0,-274.42223)">
    <g
       transform="matrix(1.2580695,0,0,1.2580695,-37.737614,-38.908908)"
       style="display:inline;stroke-width:0.794869"
       id="g1264">
      <g
         style="stroke-width:0.794869"
         id="g1240">
        <path
           style="color:#000000;font-style:normal;font-variant:normal;font-weight:normal;font-stretch:normal;font-size:medium;line-height:normal;font-family:sans-serif;font-variant-ligatures:normal;font-variant-position:normal;font-variant-caps:normal;font-variant-numeric:normal;font-variant-alternates:normal;font-variant-east-asian:normal;font-feature-settings:normal;font-variation-settings:normal;text-indent:0;text-align:start;text-decoration:none;text-decoration-line:none;text-decoration-style:solid;text-decoration-color:#000000;letter-spacing:normal;word-spacing:normal;text-transform:none;writing-mode:lr-tb;direction:ltr;text-orientation:mixed;dominant-baseline:auto;baseline-shift:baseline;text-anchor:start;white-space:normal;shape-padding:0;shape-margin:0;inline-size:0;clip-rule:nonzero;display:inline;overflow:visible;visibility:visible;isolation:auto;mix-blend-mode:normal;color-interpolation:sRGB;color-interpolation-filters:linearRGB;solid-color:#000000;solid-opacity:1;vector-effect:none;fill:#b01d47;fill-opacity:1;fill-rule:nonzero;stroke:none;stroke-width:0.420618;stroke-linecap:round;stroke-linejoin:round;stroke-miterlimit:4;stroke-dasharray:none;stroke-dashoffset:0;stroke-opacity:1;color-rendering:auto;image-rendering:auto;shape-rendering:auto;text-rendering:auto;enable-background:accumulate;stop-color:#000000"
           d="m 32.619141,256.52539 c -1.019744,0 -1.851563,0.83182 -1.851563,1.85156 0,0.72535 0.467385,1.23176 1.060547,1.51367 l -0.002,1.04883 c -5.64e-4,0.14617 0.117499,0.26511 0.263672,0.26563 h 13.759765 c 0.146173,-5.2e-4 0.264236,-0.11946 0.263672,-0.26563 l -0.07175,-1.0332 c 0.594792,-0.28553 1.060547,-0.80443 1.060547,-1.5293 0,-1.01974 -0.762069,-1.85156 -1.781813,-1.85156 -1.019744,0 -1.853515,0.83182 -1.853515,1.85156 0,0.0329 0.01095,0.12586 0.0039,0.17774 h -9.003906 c -0.0062,-0.0525 0.0039,-0.14218 0.0039,-0.17774 0,-1.01974 -0.831818,-1.85156 -1.851562,-1.85156 z"
           id="path1418"
           sodipodi:nodetypes="csccccccsssccscc" />
        <path
           style="color:#000000;font-style:normal;font-variant:normal;font-weight:normal;font-stretch:normal;font-size:medium;line-height:normal;font-family:sans-serif;font-variant-ligatures:normal;font-variant-position:normal;font-variant-caps:normal;font-variant-numeric:normal;font-variant-alternates:normal;font-variant-east-asian:normal;font-feature-settings:normal;font-variation-settings:normal;text-indent:0;text-align:start;text-decoration:none;text-decoration-line:none;text-decoration-style:solid;text-decoration-color:#000000;letter-spacing:normal;word-spacing:normal;text-transform:none;writing-mode:lr-tb;direction:ltr;text-orientation:mixed;dominant-baseline:auto;baseline-shift:baseline;text-anchor:start;white-space:normal;shape-padding:0;shape-margin:0;inline-size:0;clip-rule:nonzero;display:inline;overflow:visible;visibility:visible;isolation:auto;mix-blend-mode:normal;color-interpolation:sRGB;color-interpolation-filters:linearRGB;solid-color:#000000;solid-opacity:1;vector-effect:none;fill:#b01d47;fill-opacity:1;fill-rule:evenodd;stroke:none;stroke-width:0.210309px;stroke-linecap:butt;stroke-linejoin:miter;stroke-miterlimit:4;stroke-dasharray:none;stroke-dashoffset:0;stroke-opacity:1;color-rendering:auto;image-rendering:auto;shape-rendering:auto;text-rendering:auto;enable-background:accumulate;stop-color:#000000"
           d="m 41.371094,256.82812 c -0.839965,0.0344 -1.641188,0.30652 -2.400391,0.80079 -1.560904,-0.98484 -3.263869,-0.97531 -5.025391,-0.27149 l -0.132812,0.0527 0.0625,0.1289 c 0.199769,0.41449 0.197716,0.83238 0.199219,1.2793 v 0.13281 h 9.785156 l 0.0039,-0.1289 c 0.01488,-0.46125 -0.01843,-0.87546 0.257813,-1.24219 l 0.103515,-0.13477 -0.15625,-0.0664 c -0.92813,-0.39153 -1.831263,-0.58626 -2.697265,-0.55079 z"
           id="path1432" />
        <path
           sodipodi:nodetypes="csccccsccscc"
           id="path1202"
           style="color:#000000;font-style:normal;font-variant:normal;font-weight:normal;font-stretch:normal;font-size:medium;line-height:normal;font-family:sans-serif;font-variant-ligatures:normal;font-variant-position:normal;font-variant-caps:normal;font-variant-numeric:normal;font-variant-alternates:normal;font-variant-east-asian:normal;font-feature-settings:normal;font-variation-settings:normal;text-indent:0;text-align:start;text-decoration:none;text-decoration-line:none;text-decoration-style:solid;text-decoration-color:#000000;letter-spacing:normal;word-spacing:normal;text-transform:none;writing-mode:lr-tb;direction:ltr;text-orientation:mixed;dominant-baseline:auto;baseline-shift:baseline;text-anchor:start;white-space:normal;shape-padding:0;shape-margin:0;inline-size:0;clip-rule:nonzero;display:inline;overflow:visible;visibility:visible;isolation:auto;mix-blend-mode:normal;color-interpolation:sRGB;color-interpolation-filters:linearRGB;solid-color:#000000;solid-opacity:1;vector-effect:none;fill:#801231;fill-opacity:1;fill-rule:nonzero;stroke:none;stroke-width:0.420618;stroke-linecap:round;stroke-linejoin:round;stroke-miterlimit:4;stroke-dasharray:none;stroke-dashoffset:0;stroke-opacity:1;color-rendering:auto;image-rendering:auto;shape-rendering:auto;text-rendering:auto;enable-background:accumulate;stop-color:#000000"
           d="m 45.290008,256.52546 c 1.019744,0 1.828318,0.83183 1.828318,1.85157 0,0.72535 -0.525363,1.23169 -1.118524,1.5136 l 0.06022,1.04903 c 5.58e-4,0.14632 -0.03637,0.26532 -0.182693,0.26562 h -2.869076 v -2.40864 c 0,-0.0834 0.0025,-0.16182 0.0041,-0.24185 H 43.5007 c 0.0062,-0.0525 -0.0041,-0.1422 -0.0041,-0.17776 0,-1.01974 0.773696,-1.85157 1.79344,-1.85157 z" />
        <path
           style="color:#000000;font-style:normal;font-variant:normal;font-weight:normal;font-stretch:normal;font-size:medium;line-height:normal;font-family:sans-serif;font-variant-ligatures:normal;font-variant-position:normal;font-variant-caps:normal;font-variant-numeric:normal;font-variant-alternates:normal;font-variant-east-asian:normal;font-feature-settings:normal;font-variation-settings:normal;text-indent:0;text-align:start;text-decoration:none;text-decoration-line:none;text-decoration-style:solid;text-decoration-color:#000000;letter-spacing:normal;word-spacing:normal;text-transform:none;writing-mode:lr-tb;direction:ltr;text-orientation:mixed;dominant-baseline:auto;baseline-shift:baseline;text-anchor:start;white-space:normal;shape-padding:0;shape-margin:0;inline-size:0;clip-rule:nonzero;display:inline;overflow:visible;visibility:visible;isolation:auto;mix-blend-mode:normal;color-interpolation:sRGB;color-interpolation-filters:linearRGB;solid-color:#000000;solid-opacity:1;vector-effect:none;fill:#dc1c4b;fill-opacity:1;fill-rule:nonzero;stroke:none;stroke-width:0.420618;stroke-linecap:round;stroke-linejoin:round;stroke-miterlimit:4;stroke-dasharray:none;stroke-dashoffset:0;stroke-opacity:1;color-rendering:auto;image-rendering:auto;shape-rendering:auto;text-rendering:auto;enable-background:accumulate;stop-color:#000000"
           d="m 33.148438,253.00391 c -0.579111,0 -1.04573,0.49415 -1.011719,1.07226 a 0.26460996,0.26460996 0 0 0 0.002,0.006 l 0.216797,2.66992 a 0.26460996,0.26460996 0 0 0 0.335937,0.23438 c -0.01054,0.003 0.07377,-0.003 0.181641,0.0332 0.107866,0.0359 0.240015,0.10062 0.365234,0.17578 0.125219,0.0752 0.245318,0.16237 0.330078,0.24024 0.08476,0.0779 0.126975,0.15862 0.121094,0.13867 a 0.26460996,0.26460996 0 0 0 0.349609,0.17187 c 1.564729,-0.61076 3.080359,-0.83864 4.789063,0.24219 a 0.26460996,0.26460996 0 0 0 0.287109,-0.004 c 1.597259,-1.04698 3.171207,-0.91509 4.798828,-0.24024 a 0.26460996,0.26460996 0 0 0 0.367188,-0.24023 c -6.82e-4,0.0717 -0.0012,0.01 0.07031,-0.0566 0.07156,-0.0664 0.186355,-0.14624 0.3125,-0.21485 0.126146,-0.0686 0.2634,-0.12543 0.38086,-0.1582 0.11746,-0.0328 0.216865,-0.0333 0.232422,-0.0293 a 0.26460996,0.26460996 0 0 0 0.330078,-0.23633 l 0.193359,-2.72851 a 0.26460996,0.26460996 0 0 0 0,-0.004 c 0.03401,-0.57811 -0.430656,-1.07226 -1.009765,-1.07226 z"
           id="path1376" />
        <path
           id="path1204"
           style="color:#000000;font-style:normal;font-variant:normal;font-weight:normal;font-stretch:normal;font-size:medium;line-height:normal;font-family:sans-serif;font-variant-ligatures:normal;font-variant-position:normal;font-variant-caps:normal;font-variant-numeric:normal;font-variant-alternates:normal;font-variant-east-asian:normal;font-feature-settings:normal;font-variation-settings:normal;text-indent:0;text-align:start;text-decoration:none;text-decoration-line:none;text-decoration-style:solid;text-decoration-color:#000000;letter-spacing:normal;word-spacing:normal;text-transform:none;writing-mode:lr-tb;direction:ltr;text-orientation:mixed;dominant-baseline:auto;baseline-shift:baseline;text-anchor:start;white-space:normal;shape-padding:0;shape-margin:0;inline-size:0;clip-rule:nonzero;display:inline;overflow:visible;visibility:visible;isolation:auto;mix-blend-mode:normal;color-interpolation:sRGB;color-interpolation-filters:linearRGB;solid-color:#000000;solid-opacity:1;vector-effect:none;fill:#801231;fill-opacity:1;fill-rule:nonzero;stroke:none;stroke-width:0.420618;stroke-linecap:round;stroke-linejoin:round;stroke-miterlimit:4;stroke-dasharray:none;stroke-dashoffset:0;stroke-opacity:1;color-rendering:auto;image-rendering:auto;shape-rendering:auto;text-rendering:auto;enable-background:accumulate;stop-color:#000000"
           d="m 43.319318,257.11406 c 0.233056,0.0685 0.46745,0.14936 0.702797,0.24339 l 0.132811,0.0527 -0.06253,0.12868 c -0.199769,0.41449 -0.19797,0.83258 -0.199472,1.2795 v 0.13281 h -0.884701 v -0.15451 c 0,-0.54646 0.02636,-1.01705 0.205155,-1.46451 0.0303,-0.0758 0.06691,-0.14785 0.105939,-0.21807 z" />
        <path
           d="m 43.993698,260.2565 -9.929627,0.016 -0.06563,0.83871 h 9.995255 z"
           style="color:#000000;font-style:normal;font-variant:normal;font-weight:normal;font-stretch:normal;font-size:medium;line-height:normal;font-family:sans-serif;font-variant-ligatures:normal;font-variant-position:normal;font-variant-caps:normal;font-variant-numeric:normal;font-variant-alternates:normal;font-variant-east-asian:normal;font-feature-settings:normal;font-variation-settings:normal;text-indent:0;text-align:start;text-decoration:none;text-decoration-line:none;text-decoration-style:solid;text-decoration-color:#000000;letter-spacing:normal;word-spacing:normal;text-transform:none;writing-mode:lr-tb;direction:ltr;text-orientation:mixed;dominant-baseline:auto;baseline-shift:baseline;text-anchor:start;white-space:normal;shape-padding:0;shape-margin:0;inline-size:0;clip-rule:nonzero;display:inline;overflow:visible;visibility:visible;isolation:auto;mix-blend-mode:normal;color-interpolation:sRGB;color-interpolation-filters:linearRGB;solid-color:#000000;solid-opacity:1;vector-effect:none;fill:#801231;fill-opacity:1;fill-rule:nonzero;stroke:none;stroke-width:0.420618;stroke-linecap:round;stroke-linejoin:round;stroke-miterlimit:4;stroke-dasharray:none;stroke-dashoffset:0;stroke-opacity:1;color-rendering:auto;image-rendering:auto;shape-rendering:auto;text-rendering:auto;enable-background:accumulate;stop-color:#000000"
           id="path1132" />
        <path
           id="path1206"
           style="color:#000000;font-style:normal;font-variant:normal;font-weight:normal;font-stretch:normal;font-size:medium;line-height:normal;font-family:sans-serif;font-variant-ligatures:normal;font-variant-position:normal;font-variant-caps:normal;font-variant-numeric:normal;font-variant-alternates:normal;font-variant-east-asian:normal;font-feature-settings:normal;font-variation-settings:normal;text-indent:0;text-align:start;text-decoration:none;text-decoration-line:none;text-decoration-style:solid;text-decoration-color:#000000;letter-spacing:normal;word-spacing:normal;text-transform:none;writing-mode:lr-tb;direction:ltr;text-orientation:mixed;dominant-baseline:auto;baseline-shift:baseline;text-anchor:start;white-space:normal;shape-padding:0;shape-margin:0;inline-size:0;clip-rule:nonzero;display:inline;overflow:visible;visibility:visible;isolation:auto;mix-blend-mode:normal;color-interpolation:sRGB;color-interpolation-filters:linearRGB;solid-color:#000000;solid-opacity:1;vector-effect:none;fill:#b01d47;fill-opacity:1;fill-rule:nonzero;stroke:none;stroke-width:0.420618;stroke-linecap:round;stroke-linejoin:round;stroke-miterlimit:4;stroke-dasharray:none;stroke-dashoffset:0;stroke-opacity:1;color-rendering:auto;image-rendering:auto;shape-rendering:auto;text-rendering:auto;enable-background:accumulate;stop-color:#000000"
           d="m 45.338833,255.95444 c 0.112601,-3.1e-4 0.224898,0.009 0.335896,0.0248 l -0.06305,0.77308 a 0.26460996,0.26460996 0 0 1 -0.335896,0.23409 c 0.01054,0.003 -0.07352,-0.003 -0.181385,0.0331 -0.107866,0.0359 -0.240133,0.10105 -0.365353,0.17621 -0.125219,0.0752 -0.245451,0.16191 -0.330213,0.23978 -0.08476,0.0779 -0.126804,0.15896 -0.120923,0.13901 a 0.26460996,0.26460996 0 0 1 -0.349847,0.17157 c -0.257477,-0.1005 -0.513567,-0.18481 -0.769464,-0.26045 0.01655,-0.0515 0.03448,-0.10269 0.05478,-0.15348 0.184433,-0.46157 0.537665,-0.82013 0.970484,-1.06867 0.361495,-0.20758 0.760217,-0.30794 1.15497,-0.30902 z" />
        <path
           sodipodi:nodetypes="ssscccccccsss"
           style="color:#000000;font-style:normal;font-variant:normal;font-weight:normal;font-stretch:normal;font-size:medium;line-height:normal;font-family:sans-serif;font-variant-ligatures:normal;font-variant-position:normal;font-variant-caps:normal;font-variant-numeric:normal;font-variant-alternates:normal;font-variant-east-asian:normal;font-feature-settings:normal;font-variation-settings:normal;text-indent:0;text-align:start;text-decoration:none;text-decoration-line:none;text-decoration-style:solid;text-decoration-color:#000000;letter-spacing:normal;word-spacing:normal;text-transform:none;writing-mode:lr-tb;direction:ltr;text-orientation:mixed;dominant-baseline:auto;baseline-shift:baseline;text-anchor:start;white-space:normal;shape-padding:0;shape-margin:0;inline-size:0;clip-rule:nonzero;display:inline;overflow:visible;visibility:visible;isolation:auto;mix-blend-mode:normal;color-interpolation:sRGB;color-interpolation-filters:linearRGB;solid-color:#000000;solid-opacity:1;vector-effect:none;fill:#dc1c4b;fill-opacity:1;fill-rule:nonzero;stroke:none;stroke-width:0.420618;stroke-linecap:round;stroke-linejoin:round;stroke-miterlimit:4;stroke-dasharray:none;stroke-dashoffset:0;stroke-opacity:1;color-rendering:auto;image-rendering:auto;shape-rendering:auto;text-rendering:auto;enable-background:accumulate;stop-color:#000000"
           d="m 45.623047,256.66637 c 0.04957,-0.41309 -0.843196,-2.7e-4 -1.224609,0.21875 -0.361381,0.20752 -0.620182,0.47551 -0.761719,0.82422 -0.141538,0.34871 -0.175782,0.55931 -0.175781,1.08754 L 43.466838,262 c 5.18e-4,0.14617 0.119455,0.26423 0.265625,0.26367 l 2.012563,-0.0697 c 0.146173,-5.2e-4 0.264236,-0.11946 0.263672,-0.26563 -5.92e-4,-0.33486 0.104908,-1.66022 0.102624,-1.9986 0.279235,-0.1227 0.440476,-0.26209 0.631798,-0.51367 0.539857,-0.70992 0.424597,-1.49403 -0.148437,-2.14613 -0.290327,-0.3304 -1.021213,-0.19043 -0.971642,-0.60352 z"
           id="path1390" />
        <path
           transform="matrix(0.26458334,0,0,0.26458334,0,280.06666)"
           d="m 123.28516,-88.974609 c -3.85415,0 -6.99805,3.143911 -6.99805,6.998047 0,2.74148 1.76594,4.655216 4.00781,5.720703 l -0.008,3.964843 a 1.0001006,1.0001006 0 0 0 0.99805,1.003907 h 10.84375 v -9.103516 c 0,-0.315056 -0.009,-0.611594 -0.0156,-0.914063 h -1.8457 c -0.0234,-0.198425 0.0156,-0.537475 0.0156,-0.671874 0,-3.854136 -3.14389,-6.998047 -6.99804,-6.998047 z"
           style="color:#000000;font-style:normal;font-variant:normal;font-weight:normal;font-stretch:normal;font-size:medium;line-height:normal;font-family:sans-serif;font-variant-ligatures:normal;font-variant-position:normal;font-variant-caps:normal;font-variant-numeric:normal;font-variant-alternates:normal;font-variant-east-asian:normal;font-feature-settings:normal;font-variation-settings:normal;text-indent:0;text-align:start;text-decoration:none;text-decoration-line:none;text-decoration-style:solid;text-decoration-color:#000000;letter-spacing:normal;word-spacing:normal;text-transform:none;writing-mode:lr-tb;direction:ltr;text-orientation:mixed;dominant-baseline:auto;baseline-shift:baseline;text-anchor:start;white-space:normal;shape-padding:0;shape-margin:0;inline-size:0;clip-rule:nonzero;display:inline;overflow:visible;visibility:visible;isolation:auto;mix-blend-mode:normal;color-interpolation:sRGB;color-interpolation-filters:linearRGB;solid-color:#000000;solid-opacity:1;vector-effect:none;fill:#801231;fill-opacity:1;fill-rule:nonzero;stroke:none;stroke-width:1.58974;stroke-linecap:round;stroke-linejoin:round;stroke-miterlimit:4;stroke-dasharray:none;stroke-dashoffset:0;stroke-opacity:1;color-rendering:auto;image-rendering:auto;shape-rendering:auto;text-rendering:auto;enable-background:accumulate;stop-color:#000000"
           id="path1186" />
        <path
           transform="matrix(0.26458334,0,0,0.26458334,0,280.06666)"
           d="m 130.95312,-86.75 c -0.88084,0.259017 -1.76674,0.564519 -2.65624,0.919922 l -0.50196,0.199219 0.23633,0.486328 c 0.75503,1.566576 0.74823,3.146791 0.75391,4.835937 v 0.501953 h 3.34375 v -0.583984 c 0,-2.065361 -0.0996,-3.843969 -0.77539,-5.535156 -0.11453,-0.286623 -0.25288,-0.558786 -0.4004,-0.824219 z"
           style="color:#000000;font-style:normal;font-variant:normal;font-weight:normal;font-stretch:normal;font-size:medium;line-height:normal;font-family:sans-serif;font-variant-ligatures:normal;font-variant-position:normal;font-variant-caps:normal;font-variant-numeric:normal;font-variant-alternates:normal;font-variant-east-asian:normal;font-feature-settings:normal;font-variation-settings:normal;text-indent:0;text-align:start;text-decoration:none;text-decoration-line:none;text-decoration-style:solid;text-decoration-color:#000000;letter-spacing:normal;word-spacing:normal;text-transform:none;writing-mode:lr-tb;direction:ltr;text-orientation:mixed;dominant-baseline:auto;baseline-shift:baseline;text-anchor:start;white-space:normal;shape-padding:0;shape-margin:0;inline-size:0;clip-rule:nonzero;display:inline;overflow:visible;visibility:visible;isolation:auto;mix-blend-mode:normal;color-interpolation:sRGB;color-interpolation-filters:linearRGB;solid-color:#000000;solid-opacity:1;vector-effect:none;fill:#801231;fill-opacity:1;fill-rule:nonzero;stroke:none;stroke-width:1.58974;stroke-linecap:round;stroke-linejoin:round;stroke-miterlimit:4;stroke-dasharray:none;stroke-dashoffset:0;stroke-opacity:1;color-rendering:auto;image-rendering:auto;shape-rendering:auto;text-rendering:auto;enable-background:accumulate;stop-color:#000000"
           id="path1194" />
        <path
           transform="matrix(0.26458334,0,0,0.26458334,0,280.06666)"
           d="m 123.32031,-91.132812 c -0.42558,-0.0012 -0.85001,0.03452 -1.26953,0.09375 l 0.23828,2.921874 a 1.0001006,1.0001006 0 0 0 1.26953,0.884766 c -0.0398,0.01134 0.27785,-0.01182 0.68555,0.125 0.40768,0.135685 0.90759,0.381946 1.38086,0.666016 0.47327,0.28422 0.92769,0.611938 1.24805,0.90625 0.32035,0.294425 0.47926,0.600792 0.45703,0.52539 a 1.0001006,1.0001006 0 0 0 1.32226,0.648438 c 0.97314,-0.379846 1.94104,-0.698486 2.90821,-0.984375 -0.0626,-0.194523 -0.13033,-0.388129 -0.20703,-0.580078 -0.69707,-1.744517 -2.03212,-3.099699 -3.66797,-4.039063 -1.36628,-0.784545 -2.87326,-1.163862 -4.36524,-1.167968 z"
           style="color:#000000;font-style:normal;font-variant:normal;font-weight:normal;font-stretch:normal;font-size:medium;line-height:normal;font-family:sans-serif;font-variant-ligatures:normal;font-variant-position:normal;font-variant-caps:normal;font-variant-numeric:normal;font-variant-alternates:normal;font-variant-east-asian:normal;font-feature-settings:normal;font-variation-settings:normal;text-indent:0;text-align:start;text-decoration:none;text-decoration-line:none;text-decoration-style:solid;text-decoration-color:#000000;letter-spacing:normal;word-spacing:normal;text-transform:none;writing-mode:lr-tb;direction:ltr;text-orientation:mixed;dominant-baseline:auto;baseline-shift:baseline;text-anchor:start;white-space:normal;shape-padding:0;shape-margin:0;inline-size:0;clip-rule:nonzero;display:inline;overflow:visible;visibility:visible;isolation:auto;mix-blend-mode:normal;color-interpolation:sRGB;color-interpolation-filters:linearRGB;solid-color:#000000;solid-opacity:1;vector-effect:none;fill:#b01d47;fill-opacity:1;fill-rule:nonzero;stroke:none;stroke-width:1.58974;stroke-linecap:round;stroke-linejoin:round;stroke-miterlimit:4;stroke-dasharray:none;stroke-dashoffset:0;stroke-opacity:1;color-rendering:auto;image-rendering:auto;shape-rendering:auto;text-rendering:auto;enable-background:accumulate;stop-color:#000000"
           id="path1189" />
        <path
           sodipodi:nodetypes="scscccccsssss"
           style="color:#000000;font-style:normal;font-variant:normal;font-weight:normal;font-stretch:normal;font-size:medium;line-height:normal;font-family:sans-serif;font-variant-ligatures:normal;font-variant-position:normal;font-variant-caps:normal;font-variant-numeric:normal;font-variant-alternates:normal;font-variant-east-asian:normal;font-feature-settings:normal;font-variation-settings:normal;text-indent:0;text-align:start;text-decoration:none;text-decoration-line:none;text-decoration-style:solid;text-decoration-color:#000000;letter-spacing:normal;word-spacing:normal;text-transform:none;writing-mode:lr-tb;direction:ltr;text-orientation:mixed;dominant-baseline:auto;baseline-shift:baseline;text-anchor:start;white-space:normal;shape-padding:0;shape-margin:0;inline-size:0;clip-rule:nonzero;display:inline;overflow:visible;visibility:visible;isolation:auto;mix-blend-mode:normal;color-interpolation:sRGB;color-interpolation-filters:linearRGB;solid-color:#000000;solid-opacity:1;vector-effect:none;fill:#dc1c4b;fill-opacity:1;fill-rule:nonzero;stroke:none;stroke-width:0.420618;stroke-linecap:round;stroke-linejoin:round;stroke-miterlimit:4;stroke-dasharray:none;stroke-dashoffset:0;stroke-opacity:1;color-rendering:auto;image-rendering:auto;shape-rendering:auto;text-rendering:auto;enable-background:accumulate;stop-color:#000000"
           d="m 32.415047,256.60027 c -0.41606,0 -0.797564,0.27312 -1.08789,0.60352 -0.573035,0.6521 -0.688294,1.50231 -0.148438,2.21223 0.190541,0.25056 0.367646,0.39094 0.6455,0.51367 0.0016,0.33556 0.0015,1.73219 0.002,2.07031 5.16e-4,0.14541 0.118264,0.26316 0.263672,0.26367 h 2.117187 c 0.146173,-5.2e-4 0.264236,-0.11946 0.263672,-0.26563 v -3.06964 c 0,-0.5276 -0.03054,-0.93439 -0.169922,-1.28321 -0.139379,-0.34882 -0.39801,-0.61844 -0.759765,-0.82617 -0.381414,-0.21902 -0.709917,-0.21875 -1.125969,-0.21875 z"
           id="path1404" />
        <path
           style="color:#000000;font-style:normal;font-variant:normal;font-weight:normal;font-stretch:normal;font-size:medium;line-height:normal;font-family:sans-serif;font-variant-ligatures:normal;font-variant-position:normal;font-variant-caps:normal;font-variant-numeric:normal;font-variant-alternates:normal;font-variant-east-asian:normal;font-feature-settings:normal;font-variation-settings:normal;text-indent:0;text-align:start;text-decoration:none;text-decoration-line:none;text-decoration-style:solid;text-decoration-color:#000000;letter-spacing:normal;word-spacing:normal;text-transform:none;writing-mode:lr-tb;direction:ltr;text-orientation:mixed;dominant-baseline:auto;baseline-shift:baseline;text-anchor:start;white-space:normal;shape-padding:0;shape-margin:0;inline-size:0;clip-rule:nonzero;display:inline;overflow:visible;visibility:visible;isolation:auto;mix-blend-mode:normal;color-interpolation:sRGB;color-interpolation-filters:linearRGB;solid-color:#000000;solid-opacity:1;vector-effect:none;fill:#ebc8b6;fill-opacity:1;fill-rule:nonzero;stroke:none;stroke-width:0.420618;stroke-linecap:round;stroke-linejoin:round;stroke-miterlimit:4;stroke-dasharray:none;stroke-dashoffset:0;stroke-opacity:1;color-rendering:auto;image-rendering:auto;shape-rendering:auto;text-rendering:auto;enable-background:accumulate;stop-color:#000000"
           d="m 32.619141,261.73438 a 0.2645835,0.2645835 0 0 0 -0.263672,0.26367 v 0.79492 a 0.2645835,0.2645835 0 0 0 0.263672,0.26367 0.2645835,0.2645835 0 0 0 0.265625,-0.26367 v -0.79492 a 0.2645835,0.2645835 0 0 0 -0.265625,-0.26367 z"
           id="path1460" />
        <path
           style="color:#000000;font-style:normal;font-variant:normal;font-weight:normal;font-stretch:normal;font-size:medium;line-height:normal;font-family:sans-serif;font-variant-ligatures:normal;font-variant-position:normal;font-variant-caps:normal;font-variant-numeric:normal;font-variant-alternates:normal;font-variant-east-asian:normal;font-feature-settings:normal;font-variation-settings:normal;text-indent:0;text-align:start;text-decoration:none;text-decoration-line:none;text-decoration-style:solid;text-decoration-color:#000000;letter-spacing:normal;word-spacing:normal;text-transform:none;writing-mode:lr-tb;direction:ltr;text-orientation:mixed;dominant-baseline:auto;baseline-shift:baseline;text-anchor:start;white-space:normal;shape-padding:0;shape-margin:0;inline-size:0;clip-rule:nonzero;display:inline;overflow:visible;visibility:visible;isolation:auto;mix-blend-mode:normal;color-interpolation:sRGB;color-interpolation-filters:linearRGB;solid-color:#000000;solid-opacity:1;vector-effect:none;fill:#ebc8b6;fill-opacity:1;fill-rule:nonzero;stroke:none;stroke-width:0.420618;stroke-linecap:round;stroke-linejoin:round;stroke-miterlimit:4;stroke-dasharray:none;stroke-dashoffset:0;stroke-opacity:1;color-rendering:auto;image-rendering:auto;shape-rendering:auto;text-rendering:auto;enable-background:accumulate;stop-color:#000000"
           d="m 45.320312,261.73438 a 0.2645835,0.2645835 0 0 0 -0.265624,0.26367 v 0.79492 a 0.2645835,0.2645835 0 0 0 0.265624,0.26367 0.2645835,0.2645835 0 0 0 0.263672,-0.26367 v -0.79492 a 0.2645835,0.2645835 0 0 0 -0.263672,-0.26367 z"
           id="path1466" />
        <path
           sodipodi:nodetypes="sccccs"
           transform="matrix(0.26458334,0,0,0.26458334,0,280.06666)"
           d="m 123.28516,-69.287109 c -0.54924,0.0021 -0.99396,0.446853 -0.9961,0.996093 v 2.178728 h 2 v -2.178728 c -0.002,-0.552284 -0.45162,-0.998251 -1.0039,-0.996093 z"
           style="fill:#d0ad9b;fill-opacity:1;stroke:none;stroke-width:1.58974;stroke-linecap:round;stroke-linejoin:round"
           id="path1123" />
        <path
           sodipodi:nodetypes="sccccs"
           id="path1128"
           style="fill:#d0ad9b;fill-opacity:1;stroke:none;stroke-width:0.420618;stroke-linecap:round;stroke-linejoin:round"
           d="m 45.319207,261.73445 c -0.145316,5.7e-4 -0.262979,0.11822 -0.263551,0.26354 v 0.57646 h 0.529166 v -0.57646 c -5.75e-4,-0.14612 -0.119494,-0.26411 -0.265615,-0.26354 z" />
        <path
           sodipodi:nodetypes="ccccccc"
           d="m 31.824931,260.81509 c 4.31e-4,0.5278 7.14e-4,0.96864 0.001,1.18497 5.16e-4,0.14541 0.118658,0.27948 0.264068,0.27999 4.702827,5e-5 9.475111,5e-5 13.549607,0 0.146172,-5.2e-4 0.264113,-0.13589 0.263549,-0.28206 v -1.1829 c -5.279851,1.6e-4 -9.154769,1.5e-4 -14.078224,0 z"
           style="color:#000000;font-style:normal;font-variant:normal;font-weight:normal;font-stretch:normal;font-size:medium;line-height:normal;font-family:sans-serif;font-variant-ligatures:normal;font-variant-position:normal;font-variant-caps:normal;font-variant-numeric:normal;font-variant-alternates:normal;font-variant-east-asian:normal;font-feature-settings:normal;font-variation-settings:normal;text-indent:0;text-align:start;text-decoration:none;text-decoration-line:none;text-decoration-style:solid;text-decoration-color:#000000;letter-spacing:normal;word-spacing:normal;text-transform:none;writing-mode:lr-tb;direction:ltr;text-orientation:mixed;dominant-baseline:auto;baseline-shift:baseline;text-anchor:start;white-space:normal;shape-padding:0;shape-margin:0;inline-size:0;clip-rule:nonzero;display:inline;overflow:visible;visibility:visible;isolation:auto;mix-blend-mode:normal;color-interpolation:sRGB;color-interpolation-filters:linearRGB;solid-color:#000000;solid-opacity:1;vector-effect:none;fill:#ebc8b6;fill-opacity:1;fill-rule:nonzero;stroke:none;stroke-width:0.420618;stroke-linecap:round;stroke-linejoin:round;stroke-miterlimit:4;stroke-dasharray:none;stroke-dashoffset:0;stroke-opacity:1;color-rendering:auto;image-rendering:auto;shape-rendering:auto;text-rendering:auto;enable-background:accumulate;stop-color:#000000"
           id="path1151" />
        <path
           transform="matrix(0.26458334,0,0,0.26458334,0,280.06666)"
           d="m 120.2832,-73.289062 c 3.8e-4,0.459986 -3.2e-4,0.692495 0,1.154296 l 53.69246,0.242188 v -1.396484 c -19.95534,6.04e-4 -35.08412,5.66e-4 -53.69246,0 z"
           style="fill:#d0ad9b;fill-opacity:1;stroke:none;stroke-width:1.58974;stroke-linecap:round;stroke-linejoin:round"
           id="path1208"
           sodipodi:nodetypes="ccccc" />
      </g>
      <path
         id="path335-0"
         style="color:#000000;font-style:normal;font-variant:normal;font-weight:normal;font-stretch:normal;font-size:medium;line-height:normal;font-family:sans-serif;font-variant-ligatures:normal;font-variant-position:normal;font-variant-caps:normal;font-variant-numeric:normal;font-variant-alternates:normal;font-variant-east-asian:normal;font-feature-settings:normal;font-variation-settings:normal;text-indent:0;text-align:start;text-decoration:none;text-decoration-line:none;text-decoration-style:solid;text-decoration-color:#000000;letter-spacing:normal;word-spacing:normal;text-transform:none;writing-mode:lr-tb;direction:ltr;text-orientation:mixed;dominant-baseline:auto;baseline-shift:baseline;text-anchor:start;white-space:normal;shape-padding:0;shape-margin:0;inline-size:0;clip-rule:nonzero;display:inline;overflow:visible;visibility:visible;opacity:1;isolation:auto;mix-blend-mode:normal;color-interpolation:sRGB;color-interpolation-filters:linearRGB;solid-color:#000000;solid-opacity:1;vector-effect:none;fill:#000000;fill-opacity:1;fill-rule:nonzero;stroke:none;stroke-width:0.420618;stroke-linecap:round;stroke-linejoin:round;stroke-miterlimit:4;stroke-dasharray:none;stroke-dashoffset:0;stroke-opacity:1;color-rendering:auto;image-rendering:auto;shape-rendering:auto;text-rendering:auto;enable-background:accumulate;stop-color:#000000;stop-opacity:1"
         d="m 33.148366,253.00371 c -0.579113,0 -1.045838,0.49418 -1.011825,1.07229 7.93e-4,0.002 0.0013,0.004 0.0021,0.006 l 0.19482,2.46341 c -0.005,7.7e-4 -0.01005,2.3e-4 -0.01497,10e-4 -0.203414,0.0337 -0.389165,0.11456 -0.568441,0.19637 -0.0016,9.2e-4 -0.0035,0.002 -0.0052,0.003 -0.58096,0.31286 -0.977206,0.92732 -0.977206,1.63125 0,0.18844 0.0313,0.36662 0.08681,0.53382 0.05973,0.20231 0.155464,0.39681 0.289907,0.57361 0.06691,0.088 0.149508,0.15183 0.236678,0.20877 0.13386,0.11825 0.28304,0.22054 0.444934,0.30179 0.0077,0.62599 0,1.21718 0,1.8371 0,0.23419 0.195789,0.4315 0.429948,0.4315 h 0.09973 v 0.52916 c 5.29e-4,0.14541 0.118136,0.26357 0.263551,0.26407 0.146174,5.8e-4 0.265112,-0.11789 0.265615,-0.26407 v -0.52916 h 12.169801 v 0.52916 c 5.29e-4,0.14618 0.119441,0.26465 0.265615,0.26407 0.145415,-5e-4 0.263049,-0.11866 0.263552,-0.26407 v -0.52916 h 0.09767 c 0.234178,0 0.432014,-0.19731 0.432014,-0.4315 -0.0067,-0.62366 0,-1.21388 0,-1.83916 0.661768,-0.32131 1.022134,-0.92463 1.058212,-1.77684 -0.09904,-1.04524 -0.732581,-1.47243 -1.535245,-1.66533 -0.0036,-5.8e-4 -0.0072,-4.5e-4 -0.01085,-0.001 l 0.175184,-2.46962 c 1e-5,-0.001 1e-5,-0.003 0,-0.004 0.03401,-0.5781 -0.430649,-1.07228 -1.009759,-1.07228 z m 0,0.52969 h 11.642698 c 0.282144,0 0.498708,0.22994 0.482142,0.51159 l -0.178284,2.49546 c -0.472228,0.044 -0.925957,0.39028 -1.219047,0.65835 -1.603483,-0.61177 -3.280258,-0.70033 -4.907195,0.29921 -1.730811,-1.02853 -3.375371,-0.85528 -4.910809,-0.29145 -0.290664,-0.36143 -0.812091,-0.57847 -1.194242,-0.66302 l -0.197403,-2.49856 c -0.01656,-0.28165 0.199998,-0.51159 0.482142,-0.51159 z m 1.314648,1.32188 c -0.06679,0.002 -0.130297,0.0294 -0.177768,0.0765 -0.103645,0.10338 -0.103645,0.27127 0,0.37465 l 0.077,0.0775 -0.077,0.077 c -0.103989,0.10343 -0.103989,0.27173 0,0.37517 0.103203,0.10261 0.269901,0.10261 0.373105,0 l 0.07803,-0.078 0.07803,0.078 c 0.103203,0.10261 0.269901,0.10261 0.373104,0 0.10399,-0.10344 0.10399,-0.27174 0,-0.37517 l -0.077,-0.077 0.077,-0.0775 c 0.103646,-0.10338 0.103646,-0.27127 0,-0.37465 -0.05179,-0.0513 -0.122467,-0.079 -0.195336,-0.0765 -0.06679,0.002 -0.130297,0.0294 -0.177768,0.0765 l -0.07803,0.078 -0.07803,-0.078 c -0.05179,-0.0513 -0.122468,-0.079 -0.195337,-0.0765 z m 4.234365,0 c -0.06751,0.002 -0.131847,0.029 -0.179834,0.0765 -0.103646,0.10338 -0.103646,0.27127 0,0.37465 l 0.077,0.0775 -0.077,0.077 c -0.10399,0.10343 -0.10399,0.27173 0,0.37517 0.103438,0.10399 0.271732,0.10399 0.375171,0 l 0.077,-0.077 0.077,0.077 c 0.103439,0.10399 0.271732,0.10399 0.375171,0 0.103989,-0.10344 0.103989,-0.27174 0,-0.37517 l -0.077,-0.077 0.077,-0.0775 c 0.103645,-0.10338 0.103645,-0.27127 0,-0.37465 -0.05179,-0.0513 -0.122468,-0.079 -0.195336,-0.0765 -0.06751,0.002 -0.131848,0.029 -0.179835,0.0765 l -0.077,0.077 -0.077,-0.077 c -0.05179,-0.0513 -0.122468,-0.079 -0.195337,-0.0765 z m 4.232301,0 c -0.06679,0.002 -0.130296,0.0294 -0.177768,0.0765 -0.103645,0.10338 -0.103645,0.27127 0,0.37465 l 0.077,0.0775 -0.077,0.077 c -0.103989,0.10343 -0.103989,0.27173 0,0.37517 0.103204,0.10261 0.269902,0.10261 0.373105,0 l 0.07803,-0.078 0.07803,0.078 c 0.103203,0.10261 0.269901,0.10261 0.373105,0 0.103989,-0.10344 0.103989,-0.27174 0,-0.37517 l -0.077,-0.077 0.077,-0.0775 c 0.103645,-0.10338 0.103645,-0.27127 0,-0.37465 -0.05179,-0.0513 -0.122468,-0.079 -0.195337,-0.0765 -0.06679,0.002 -0.130297,0.0294 -0.177768,0.0765 l -0.07803,0.078 -0.07803,-0.078 c -0.05179,-0.0513 -0.122468,-0.079 -0.195337,-0.0765 z m 3.429831,4.32222 c -0.382,0.50233 -1.06072,0.66388 -1.628841,0.38912 -0.131569,-0.0637 -0.289843,-0.009 -0.353467,0.12299 -0.06368,0.13157 -0.0086,0.28985 0.122989,0.35347 0.346318,0.16749 0.722632,0.17222 1.082622,0.11731 l 0.0011,0.51521 h -1.5875 c -0.0016,-0.63045 -0.005,-1.29603 -0.0052,-1.9141 0.0016,-0.32661 0.02363,-0.57309 0.06666,-0.76429 0.0592,-0.5832 0.903745,-1.05151 1.287719,-0.97016 1.277194,0.0858 1.723721,1.42703 1.013915,2.15045 z m -13.806977,-2.12132 c 0.606269,0.004 1.05927,0.28624 1.26918,0.77102 0.0807,0.21344 0.121439,0.5135 0.121439,0.96945 v 0.006 c -7.94e-4,0.0117 -7.94e-4,0.0234 0,0.0351 v 1.83762 h -1.5875 l 0.0011,-0.53124 c 0.355864,0.0516 0.727255,0.0501 1.069184,-0.11524 0.131593,-0.0636 0.186668,-0.22189 0.122991,-0.35346 -0.06362,-0.1316 -0.221898,-0.18667 -0.353467,-0.12299 -0.568119,0.27477 -1.246841,0.11372 -1.628841,-0.38861 -0.378923,-0.49829 -0.333947,-1.19615 0.08578,-1.6738 0.08798,-0.10012 0.186179,-0.17983 0.289388,-0.2465 0.180427,-0.10798 0.38699,-0.17653 0.610814,-0.18758 z m 8.950876,0.16226 c 0.698804,-0.0119 1.400873,0.14873 2.112015,0.41445 -0.118422,0.29428 -0.147849,0.64702 -0.149357,0.9219 h -8.99945 c 0.01177,-0.3153 -0.04002,-0.65586 -0.147283,-0.90899 1.466365,-0.52799 2.902333,-0.67352 4.508767,0.34262 0.08824,0.0553 0.200702,0.0537 0.287322,-0.004 0.798628,-0.52349 1.59137,-0.7523 2.387967,-0.76584 z m -8.88473,0.81132 c -0.145319,5.6e-4 -0.262982,0.11823 -0.263549,0.26355 -5.29e-4,0.14613 0.117423,0.26505 0.263549,0.26562 0.146934,5.8e-4 0.266192,-0.11869 0.265618,-0.26562 -5.29e-4,-0.14613 -0.119491,-0.26412 -0.265618,-0.26355 z m 12.7,0 c -0.14532,5.6e-4 -0.262982,0.11823 -0.263549,0.26355 -5.29e-4,0.14613 0.117422,0.26505 0.263549,0.26562 0.146934,5.8e-4 0.266192,-0.11869 0.265618,-0.26562 -5.29e-4,-0.14613 -0.119491,-0.26412 -0.265618,-0.26355 z m -10.847916,1.0542 h 8.990665 l 0.0047,1.59163 h -8.995365 z m 0.79375,0.5333 c -0.145521,2.9e-4 -0.263496,0.11803 -0.264065,0.26355 -5.29e-4,0.14633 0.117737,0.26533 0.264065,0.26562 0.146933,5.8e-4 0.266192,-0.11869 0.265618,-0.26562 -5.3e-4,-0.14613 -0.119492,-0.26412 -0.265618,-0.26355 z m 2.38125,0 c -0.145521,2.9e-4 -0.263496,0.11803 -0.264065,0.26355 -5.29e-4,0.14633 0.117737,0.26533 0.264065,0.26562 0.146933,5.8e-4 0.266192,-0.11869 0.265618,-0.26562 -5.3e-4,-0.14613 -0.119492,-0.26412 -0.265618,-0.26355 z m 2.645833,0 c -0.14532,5.6e-4 -0.262983,0.11823 -0.263549,0.26355 -5.29e-4,0.14613 0.117422,0.26505 0.263549,0.26562 0.146934,5.8e-4 0.266192,-0.11869 0.265618,-0.26562 -5.29e-4,-0.14613 -0.119491,-0.26412 -0.265618,-0.26355 z m 2.38125,0 c -0.14532,5.6e-4 -0.262983,0.11823 -0.263549,0.26355 -5.29e-4,0.14613 0.117422,0.26505 0.263549,0.26562 0.146934,5.8e-4 0.266192,-0.11869 0.265618,-0.26562 -5.3e-4,-0.14613 -0.119491,-0.26412 -0.265618,-0.26355 z m -10.3172,1.58802 h 1.851568 11.376567 v 0.52916 H 32.355647 Z"
         sodipodi:nodetypes="sccccccscscccsccccccccccscccccccsscscccccccsccccccccccccccccccccccccccccccccccccccccccccccccccccccccccccccccccccccccccccccssccsccsccccssssssssscccccscscsscscsssssssssssccccccccccc" />
    </g>
  </g>
</svg>
